<?xml version="1.0" encoding="UTF-8" standalone="no"?>
<!-- Created with Inkscape (http://www.inkscape.org/) -->
<svg
   xmlns:svg="http://www.w3.org/2000/svg"
   xmlns="http://www.w3.org/2000/svg"
   version="1.0"
   width="543"
   height="615"
   id="svg2160"
   xml:space="preserve"><defs
   id="defs2235" />
<clipPath
   id="clp1">
	<path
   d="M 0,0 L 595.276,0 L 595.276,841.89 L 0,841.89 L 0,0 z "
   style="stroke:#000000"
   id="path2163" />
</clipPath>
<g
   transform="translate(-26.150543,-72.28175)"
   style="fill:none"
   clip-path="url(#clp1)"
   id="g2165">
	<clipPath
   id="clp2">
		<path
   d="M 36,81.75 L 36,677.358 L 559.276,677.358 L 559.276,81.75 L 36,81.75 z "
   style="stroke:#000000"
   id="path2168" />
	</clipPath>
	<g
   clip-path="url(#clp2)"
   id="g2170">
		<clipPath
   id="clp3">
			<path
   d="M 36,81.75 L 559.276,81.75 L 559.276,677.358 L 36,677.358 L 36,81.75 z "
   style="stroke:#000000"
   id="path2173" />
		</clipPath>
		<g
   clip-path="url(#clp3)"
   id="g2175">
			<clipPath
   id="clp4">
				<path
   d="M 28.058,16.126 L 568.95,16.126 L 568.95,696.105 L 28.058,696.105 L 28.058,16.126 z "
   style="stroke:#000000"
   id="path2178" />
			</clipPath>
			<g
   clip-path="url(#clp4)"
   id="g2180">
				<g
   transform="matrix(0.8586,0,0,-0.8586,28.0583,696.105)"
   id="g2182">
					<path
   d="M 258.557,577.919 C 257.446,578.824 257.337,582.106 257.2,585.139 C 257.034,588.798 258.105,593.186 260.397,593.459 C 260.896,593.519 266.065,596.313 271.064,599.306 C 275.229,601.8 296.58,617.196 296.844,617.217 C 300.199,617.481 284.532,602.52 284.45,602.506 C 283.943,602.424 273.023,592.616 273.023,591.659 C 271.636,591.659 262.912,580.687 262.195,579.01 C 261.888,578.292 259.923,576.807 258.557,577.919 M 235.703,557.916 C 237.897,562.035 239.107,565.003 241.236,567.848 C 243.235,570.52 244.229,573.69 246.121,575.498 C 249.16,578.4 249.667,581.943 250.243,581.507 C 250.625,581.218 253.765,576.756 253.042,572.597 C 252.296,568.305 248.351,563.633 245.333,561.517 C 244.293,560.789 235.563,550.461 233.131,548.385 C 232.784,548.088 232.438,548.279 232.394,548.356 C 231.878,549.269 233.123,553.071 235.703,557.916 M 275.641,491.622 C 275.529,491.866 274.552,493.827 274.589,496.308 C 274.614,498.005 275.55,499.813 275.835,502.011 C 276.35,505.96 277.939,510.273 277.908,514.188 C 277.863,519.758 275.017,523.179 275.017,524.852 C 275.017,528.33 277.824,531.589 279.656,532.576 C 290.291,538.308 297.435,544.771 306.287,549.795 C 314.18,554.275 322.313,559.355 331.563,562.84 C 337.491,565.074 343.925,566.188 350.895,567.596 C 357.902,569.011 363.938,570.699 363.883,569.363 C 363.792,567.175 352.906,559.535 342.429,550.447 C 330.175,539.819 317.96,527.616 316.334,525.974 C 315.961,525.596 309.4,520.066 302.014,513.676 C 293.317,506.154 283.304,497.793 280.609,495.125 C 278.071,492.611 276.269,490.254 275.641,491.622 M 144.777,489.153 C 144.681,489.166 143.264,488.409 141.976,489.671 C 140.249,491.364 140.549,493.329 140.438,494.837 C 140.326,496.344 140.861,498.545 142.599,500.536 C 145.294,503.624 149.206,505.554 152.625,507.441 C 156.104,509.361 157.18,511.523 158.068,509.081 C 158.154,508.843 157.442,508.485 156.848,507.757 C 155.979,506.694 154.984,505.027 154.002,503.342 C 152.41,500.61 150.115,497.864 148.523,495.119 C 146.541,491.7 145.309,489.084 144.777,489.153 M 130.058,471.098 C 130.442,471.781 133.382,484.827 135.214,486.185 C 136.569,487.19 137.085,484.893 137.28,484.499 C 137.674,483.702 138.53,483.321 138.352,481.547 C 137.782,475.875 133.6,470.739 131.11,468.862 C 130.728,468.574 129.376,469.889 130.058,471.098 M 431.015,469.251 C 430.555,471.852 432.005,474.018 432.488,475.337 C 433.805,478.94 442.717,484.386 442.717,485.585 C 443.652,485.585 450.549,491.279 450.549,492.188 C 451.201,492.188 461.976,502.049 461.976,502.435 C 463.173,502.435 469.808,511.581 469.808,507.88 C 469.738,507.88 460.178,496.144 460.178,495.832 C 459.908,495.832 449.949,485.193 449.949,484.342 C 448.769,484.342 437.332,469.768 436.682,468.692 C 436.289,468.041 436.05,466.181 433.922,465.792 C 433.3,465.678 432.41,465.45 431.973,465.929 C 431.242,466.728 431.138,468.553 431.015,469.251 M 224.435,445.23 C 223.68,445.478 224.21,449.658 224.719,452.77 C 225.508,457.595 228.7,466.148 230.847,470.235 C 234.13,476.483 238.745,482.616 242.639,488.024 C 248.532,496.209 252.496,502.865 253.158,503.228 C 254.04,503.712 256.506,499.954 260.073,496.279 C 261.906,494.391 264.576,492.975 265.864,490.814 C 268.012,487.214 267.669,482.664 263.077,478.615 C 260.306,476.173 255.375,474.313 251.571,470.631 C 246.653,465.872 241.599,459.515 236.924,454.782 C 230.912,448.698 225.73,444.805 224.435,445.23 M 114.157,443.353 C 111.022,445.283 117.319,496.527 118.69,499.557 C 119.627,501.624 119.61,534.14 122.696,531.976 C 124.856,530.462 125.646,520.664 128.676,512.066 C 130.264,507.563 132.543,503.346 133.558,499.452 C 134.234,496.856 133.728,495.221 133.731,493.664 C 133.737,490.477 128.187,474.737 127.981,474.737 C 127.981,468.203 119.254,440.212 114.157,443.353 M 391.573,416.255 C 391.573,417.584 398.708,428.303 399.405,428.303 C 399.405,429.65 411.929,446.997 412.03,446.997 C 412.03,447.496 418.351,456.451 418.664,456.644 C 418.856,456.763 421.099,456.12 419.41,450.68 C 419.185,449.953 419.723,448.064 418.562,446.406 C 417.447,444.815 415.342,443.62 413.385,441.6 C 411.166,439.311 409.037,436.137 406.923,433.331 C 400.695,425.07 394.355,416.255 391.573,416.255 M 270.975,415.609 C 273.472,417.566 275.821,418.426 277.322,418.202 C 279.325,417.902 279.862,414.305 280.013,412.275 C 280.265,408.892 278.734,406.19 275.907,403.44 C 273.169,400.777 269.842,401.21 268.013,403.17 C 266.795,404.475 266.632,407.889 266.676,409.411 C 266.767,412.528 268.693,413.82 270.975,415.609 M 177.052,403.433 C 176.438,405.91 177.267,406.072 176.703,407.5 C 175.878,409.587 173.263,412.431 168.589,413.077 C 167.684,413.202 166.227,413.888 165.899,414.412 C 161.772,421.026 170.387,420.848 173.731,422.258 C 176.258,423.322 179.573,422.83 183.09,422.814 C 186.828,422.797 199.704,423.88 203.878,425.657 C 204.706,426.01 199.801,419.769 199.312,419.821 C 199.154,419.838 191.665,412.08 190.594,411.41 C 189.219,410.548 184.705,407.201 183.96,406.008 C 183.323,404.987 181.696,403.779 180.687,402.571 C 179.605,401.277 179.132,400.026 178.238,400.41 C 177.662,400.657 177.407,402.001 177.052,403.433 M 249.27,396.735 C 248.973,397.427 249.128,398.676 249.012,399.928 C 248.91,401.034 248.505,402.134 248.689,402.977 C 248.959,404.206 250.783,404.427 251.966,405.408 C 252.945,406.219 262.521,412.284 262.606,410.134 C 262.676,408.376 262.771,405.69 262.063,403.446 C 262.021,403.312 259.666,401.414 256.858,399.801 C 253.47,397.854 249.506,396.186 249.27,396.735 M 245.932,389.716 C 245.63,388.137 244.93,387.766 244.302,387.113 C 243.226,385.991 242.185,385.472 240.889,385.647 C 240.111,385.753 239.073,385.82 238.351,386.966 C 236.062,390.596 236.472,394.867 238.03,396.773 C 239.304,398.331 241.149,399.711 242.482,399.466 C 246.851,398.662 246.583,393.121 245.932,389.716 M 276.909,379.604 C 275.415,379.63 272.842,385.403 279.176,384.638 C 279.72,384.571 280.374,382.688 279.904,381.145 C 279.463,379.693 278.519,379.576 276.909,379.604 M 270.66,383.31 C 271.669,383.1 271.669,380.995 271.673,380.27 C 271.687,377.886 270.521,377.468 269.644,377.194 C 268.618,376.876 267.224,376.758 266.42,377.716 C 265.71,378.562 265.506,380.405 265.771,381.413 C 266.094,382.637 266.709,384.131 270.66,383.31 M 254.252,372.417 C 254.164,370.194 253.112,369.877 252.079,369.778 C 249.667,369.549 249.368,370.772 249.481,373.261 C 249.516,374.023 249.191,375.132 249.955,375.778 C 251.309,376.925 252.901,376.402 253.707,375.35 C 254.354,374.504 254.278,373.07 254.252,372.417 M 244.179,367.972 C 243.675,371.103 245.202,371.72 245.875,371.459 C 246.637,371.163 247.307,370.06 247.318,369.958 C 247.616,367.144 244.457,366.241 244.179,367.972 M 233.306,361.375 C 233.306,363.328 232.707,363.798 232.707,366.22 C 231.426,366.22 227.895,406.008 231.509,406.008 C 231.509,408.849 233.145,416.255 235.703,416.255 C 235.703,418.173 247.729,421.42 247.729,422.858 C 248.851,422.858 257.359,428.35 257.359,428.903 C 258.63,428.903 268.786,435.46 268.786,436.149 C 272.148,436.149 275.826,441.552 279.057,441.552 C 279.057,442.422 287.893,445.796 289.286,445.796 C 289.286,446.071 292.282,448.279 292.282,446.997 C 294.026,446.997 292.938,446.396 294.679,446.396 C 294.679,443.965 298.125,416.255 298.916,416.255 C 298.916,407.372 303.709,400.729 303.709,391.516 C 302.864,391.516 302.332,386.714 300.713,386.714 C 300.713,383.243 285.049,379.985 285.049,378.868 C 283.131,378.868 266.988,371.799 266.988,371.622 C 265.511,371.622 252.565,365.949 252.565,365.619 C 249.036,365.619 245.519,361.975 241.138,361.975 C 241.138,360.731 234.719,361.375 233.306,361.375 M 135.813,355.329 C 134.21,355.738 132.98,358.066 132.484,360.244 C 131.216,365.812 131.69,373.76 133.728,381.384 C 135.853,389.336 140.145,396.027 141.248,397.562 C 143.688,400.955 148.529,406.747 152.193,410.433 C 153.983,412.233 155.133,413.951 156.28,413.831 C 157.445,413.708 159.33,411.896 157.447,408.988 C 156.804,407.993 154.975,407.949 154.26,407.1 C 153.528,406.23 152.249,403.181 152.024,400.58 C 151.793,397.897 152.639,395.659 153.346,394.77 C 154.565,393.234 156.249,391.168 157.886,390.201 C 159.33,389.349 160.826,389.595 160.694,388.339 C 160.616,387.598 160.26,385.71 159.173,386.496 C 158.386,387.064 157.313,389.141 156.31,390.102 C 155.53,390.849 154.791,390.673 154.261,390.195 C 153.311,389.338 156.335,387.562 155.91,384.879 C 155.484,382.196 151.607,378.604 150.72,377.898 C 150.02,377.341 149.161,377.28 148.67,376.781 C 147.622,375.718 147.796,374.247 148.221,373.761 C 148.805,373.089 150.497,372.643 150.701,371.64 C 151.026,370.034 149.967,367.807 148.743,365.901 C 147.121,363.376 144.278,361.748 142.053,359.628 C 139.431,357.13 137.82,354.816 135.813,355.329 M 242.01,328.914 C 241.553,329.263 240.041,334.761 238.174,339.348 C 237.054,342.099 234.762,344.105 235.418,345.644 C 235.978,346.957 237.708,346.783 238.918,345.871 C 239.645,345.323 239.609,344.248 240.629,343.8 C 242.776,342.858 246.649,344.181 249.744,345.689 C 251.15,346.376 252.656,346.648 253.309,347.561 C 253.871,348.345 254.035,349.003 253.242,349.315 C 250.563,350.368 241.22,349.748 235.692,349.724 C 233.485,349.714 232.346,354.027 232.327,354.992 C 232.3,356.314 235.093,355.482 239.065,354.945 C 247.814,353.764 259.813,353.306 268.143,354.7 C 269.764,354.971 275.793,358.723 283.025,362.556 C 284.38,363.273 299.153,370.676 307.762,374.947 C 310.875,376.493 313.104,377.434 313.338,378.268 C 313.676,379.474 313.409,382.428 314.109,385.221 C 315.758,391.808 318.118,394.987 324.681,392.662 C 326.423,392.045 326.689,392.045 327.94,390.168 C 328.64,389.12 329.019,387.384 328.488,385.985 C 327.924,384.496 326.437,383.336 326.916,381.941 C 327.685,379.709 330.155,378.138 331.412,376.318 C 332.592,374.609 334.41,374.452 334.694,373.208 C 335.505,369.655 332.591,366.503 329.417,365.667 C 325.337,364.592 319.878,366.437 319.836,368.457 C 319.756,372.399 301.51,364.233 300.713,363.775 C 299.325,362.978 288.687,358.242 288.687,357.173 C 288.137,357.173 287.334,356.819 286.976,356.423 C 286.796,356.224 285.752,355.04 287.192,354.688 C 288.819,354.292 291.42,354.403 294.268,354.442 C 297.496,354.485 301.043,354.554 303.851,355.805 C 305.762,356.655 306.978,358.293 308.018,359.798 C 308.785,360.909 309.783,361.588 309.743,363.176 C 309.686,365.45 312.773,366.427 315.551,366.433 C 318.509,366.438 319.259,364.693 321.17,361.975 C 321.971,360.838 321.798,358.005 320.931,356.272 C 320.337,355.087 319.157,354.936 318.773,354.129 C 317.534,351.52 319.52,349.63 321.034,347.644 C 321.943,346.451 322.735,344.858 322.414,344.079 C 322.006,343.09 321.563,341.913 320.582,341.376 C 319.057,340.538 316.16,340 314.09,340.765 C 310.438,342.113 308.203,346.342 307.32,348.341 C 307.094,348.854 305.09,348.491 302.193,348.524 C 294.123,348.614 277.272,348.412 269.615,348.983 C 267.826,349.116 265.957,348.234 264.022,347.339 C 261.688,346.26 259.256,345.013 256.754,343.56 C 252.962,341.358 248.852,339.613 246.041,338.671 C 245.198,338.389 245.59,336.467 245.307,334.575 C 244.894,331.811 243.23,327.98 242.01,328.914 M 102.131,314.34 C 102.131,321.521 109.233,402.363 109.92,402.363 C 109.92,411.465 114.52,387.914 114.756,387.914 C 114.756,381.718 125.554,354.729 130.42,354.729 C 130.42,343.604 112.958,342.065 112.958,335.435 C 105.198,335.435 118.351,319.152 118.351,325.831 C 121.366,325.831 135.813,334.776 135.813,332.434 C 134.827,332.434 134.398,330.633 133.416,330.633 C 133.416,329.244 120.148,326.375 120.148,323.987 C 115.94,323.987 109.321,314.34 102.131,314.34 M 402.4,292.646 C 402.4,293.144 398.417,295.065 396.923,296.553 C 396.189,297.284 394.469,298.567 394.015,299.104 C 391.8,301.713 388.624,306.651 386.619,309.396 C 382.025,315.685 374.67,317.794 371.572,326.442 C 371.021,327.982 370.186,328.706 369.306,330.015 C 367.816,332.23 364.934,336.895 362.941,341.594 C 361.069,346.009 360.058,350.492 359.489,351.892 C 358.684,353.878 355.458,367.789 355.814,368.049 C 355.904,368.113 357.276,368.721 357.259,368.255 C 357.133,364.919 360.169,356.262 359.688,355.973 C 359.631,355.938 369.168,332.933 372.944,327.551 C 373.675,326.509 374.159,325.939 374.887,324.787 C 375.85,323.262 377.143,320.56 379.149,318.45 C 382.981,314.424 388.024,310.893 388.577,310.139 C 389.527,308.843 394.063,301.842 396.79,299.474 C 397.209,299.11 398.343,298.146 398.781,297.831 C 399.101,297.603 402.467,296.271 402.696,294.885 C 402.773,294.423 403.623,292.646 402.4,292.646 M 360.887,295.046 C 360.497,295.626 359.888,296.938 360.986,296.944 C 365.298,296.973 379.51,292.293 380.182,291.061 C 380.198,291.029 377.199,289.86 374.461,288.348 C 371.803,286.88 370.693,285.31 369.352,285.098 C 367.094,284.741 364.039,287.033 362.457,289.815 C 361.409,291.659 361.646,293.918 360.887,295.046 M 268.187,284.799 C 267.693,284.906 263.281,287.83 260.911,292.544 C 259.034,296.279 256.7,299.471 255.107,302.489 C 252.343,307.728 250.783,312.238 249.115,315.627 C 247.644,318.616 245.957,320.677 245.154,322.396 C 242.055,329.034 244.8,326.944 247.976,321.954 C 250.225,318.422 251.48,312.648 253.985,308.151 C 255.818,304.86 257.717,300.762 259.388,299.023 C 259.561,298.844 262.519,294.976 264.356,294.027 C 264.747,293.826 264.956,295.738 267.087,295.435 C 269.58,295.079 269.829,294.5 270.082,293.785 C 270.565,292.422 269.047,290.566 269.039,288.841 C 269.029,286.849 269.664,284.479 268.187,284.799 M 272.423,283.599 C 272.21,286.236 271.788,288.496 271.959,290.635 C 272.077,292.098 272.649,293.509 273.023,295.046 C 273.425,296.701 274.121,291.813 274.142,291.543 C 274.383,288.513 274.217,286.402 274.172,283.162 C 274.159,282.208 273.363,281.299 273.728,280.078 C 273.81,279.802 274.17,274.066 272.578,278.053 C 271.925,279.688 272.484,282.838 272.423,283.599 M 175.156,274.293 C 181.268,275.888 187.846,283.029 194.139,281.924 C 195.45,281.693 197.974,281.414 198.371,280.19 C 198.558,279.613 199.447,278.131 198.398,277.428 C 197.999,277.159 195.136,277.296 193.494,277.095 C 189.455,276.599 185.348,275.979 183.992,275.657 C 181.369,275.037 179.264,273.921 177.717,273.412 C 176.727,273.086 175.897,273.161 175.531,273.274 C 174.742,273.518 174.637,274.157 175.156,274.293 M 148.188,295.253 C 147.969,299.113 147.821,307.482 149.605,313.445 C 153.986,328.088 152.896,318.396 152.636,312.324 C 152.52,309.63 152.05,307.093 151.842,303.792 C 151.371,296.317 152.284,288.053 153.944,281.401 C 155.02,277.09 156.922,272.236 156.384,271.877 C 155.298,271.152 154.657,272.561 153.056,275.805 C 151.405,279.153 148.8,284.512 148.188,295.253 M 376.508,279.997 C 378.48,280.66 382.124,283.636 382.946,281.438 C 385.303,275.135 376.679,268.542 375.652,269.69 C 373.565,272.025 371.145,273.887 372.649,276.428 C 373.748,278.282 375.846,279.774 376.508,279.997 M 277.816,274.552 C 277.037,276.732 277.355,278.849 277.416,281.021 C 277.493,283.814 277.469,286.654 277.568,289.332 C 277.667,292.003 277.83,294.749 278.416,297.49 C 278.627,298.482 279.669,298.417 279.993,296.87 C 280.275,295.529 279.914,292.874 280.277,290.406 C 280.775,287.011 280.647,282.942 280.945,279.596 C 281.129,277.533 280.809,275.467 280.659,273.726 C 280.354,270.216 279.745,268.105 278.405,270.551 C 278.034,271.229 278.302,273.191 277.816,274.552 M 361.486,279.396 C 361.274,278.67 354.258,290.074 354.253,290.244 C 354.211,291.746 353.182,292.339 352.581,293.453 C 351.344,295.753 350.417,297.159 350.583,298.152 C 350.658,298.603 350.451,299.309 351.436,299.377 C 354.302,299.577 356.67,295.309 359.263,290.78 C 359.366,290.601 360.8,288.625 361.853,286.031 C 362.783,283.743 363.259,280.973 364.508,278.529 C 365.787,276.026 370.457,270.865 369.906,268.401 C 369.284,265.615 367.133,266.784 365.454,269.728 C 363.296,273.511 361.593,279.762 361.486,279.396 M 264.592,263.704 C 263.919,263.876 254.981,266.718 244.883,269.863 C 240.701,271.166 235.815,272.414 231.627,273.673 C 227.007,275.063 221.495,275.049 217.575,276.494 C 207.177,280.329 209.535,282.879 215.145,283.21 C 220.933,283.551 230.187,281.602 232.738,280.987 C 238.522,279.594 243.537,277.087 246.531,276.396 C 247.989,276.059 249.826,274.625 252.932,273.396 C 257.187,271.713 262.969,269.957 265.605,267.751 C 268.433,265.384 267.638,262.924 264.592,263.704 M 362.085,261.903 C 362.025,261.904 359.294,261.899 357.563,264.676 C 356.259,266.769 355.923,269.771 354.722,272.174 C 351.251,279.113 341.996,288.868 340.152,297.582 C 339.405,301.113 338.482,301.51 339.491,301.481 C 340.338,301.458 342.401,301.579 343.933,300.502 C 344.816,299.879 346.929,297.142 349.224,293.307 C 351.826,288.96 354.724,283.224 357.446,277.928 C 361.828,269.402 365.395,261.87 362.085,261.903 M 208.138,263.651 C 208.214,261.899 207.695,261.566 206.62,261.436 C 205.563,261.308 204.451,261.029 204.269,261.44 C 203.636,262.867 202.704,265.481 203.661,266.389 C 204.186,266.886 204.923,266.427 205.666,266.372 C 208.561,266.161 208.056,265.55 208.138,263.651 M 216.401,263.273 C 216.281,263.867 216.354,265.007 216.67,265.298 C 217.168,265.754 218.133,264.957 219.292,264.479 C 220.194,264.106 221.298,264.206 221.85,263.435 C 222.713,262.228 222.504,260.319 221.184,259.484 C 220.401,258.989 219.783,259.829 218.917,260.036 C 218.154,260.218 217.12,259.695 216.729,260.344 C 216.235,261.16 216.556,262.509 216.401,263.273 M 349.586,260.155 C 349.083,261.106 348.694,262.82 347.919,264.457 C 345.364,269.854 342.066,278.284 338.669,285.774 C 336.248,291.112 332.938,295.272 331.576,298.321 C 330.692,300.298 330.613,301.325 331.026,301.688 C 331.715,302.291 333.771,301.045 335.743,299.265 C 337.767,297.438 338.691,294.904 339.83,293.245 C 340.169,292.753 344.867,280.592 349.336,271.255 C 352.394,264.866 355.595,260.619 355.451,260.103 C 354.322,256.037 350.976,257.523 349.586,260.155 M 179.125,260.103 C 178.268,261.173 178.504,262.69 178.875,264.056 C 179.176,265.16 180.655,263.114 182.56,261.466 C 185.087,259.279 186.393,257.644 188.155,260.103 C 188.975,261.247 190.319,261.504 190.585,262.204 C 190.601,262.245 190.608,266.444 191.99,266.423 C 192.376,266.417 193.176,266.973 193.742,265.927 C 194.2,265.08 194.041,263.695 194.11,262.287 C 194.164,261.203 194.898,260.49 194.114,259.668 C 193.339,258.855 191.138,259.106 187.577,258.303 C 186.71,258.107 187.115,257.8 186.224,257.695 C 183.925,257.427 180.501,258.381 179.125,260.103 M 230.311,261.903 C 232.095,261.607 231.843,262.026 233.853,260.843 C 234.885,260.235 234.699,258.859 234.36,257.699 C 234.083,256.751 235.377,256.433 231.594,256.433 C 229.629,256.433 228.986,262.123 230.311,261.903 M 339.89,259.958 C 338.871,261.726 338.476,263.906 337.52,266.03 C 334.979,271.676 332.069,277.961 330.008,282.825 C 327.438,288.891 324.911,293.355 324.166,294.446 C 318.421,302.851 319.889,304.861 322.291,302.853 C 323.507,301.836 325.178,299.052 326.82,296.558 C 330.497,290.973 332.277,286.505 335.403,280.416 C 338.235,274.9 340.497,269.616 342.938,264.297 C 344.129,261.699 346.063,259.132 346.777,256.474 C 348.226,251.083 343.783,252.837 341.229,256.422 C 340.378,257.616 340.247,259.336 339.89,259.958 M 245.932,254.058 C 245.72,252.059 243.598,251.148 242.713,252.877 C 242.001,254.267 242.333,255.584 242.444,256.241 C 242.558,256.916 243.317,256.785 244.222,256.815 C 244.926,256.839 245.768,257.208 246.143,256.534 C 246.429,256.02 246.036,255.04 245.932,254.058 M 283.008,299.124 C 284.547,301.683 291.776,301.062 294.231,301.354 C 297.97,301.802 296.98,295.697 297.162,293.867 C 297.636,289.131 298.771,282.169 299.35,278.95 C 300.461,272.76 301.039,267.96 301.885,264.615 C 303.322,258.928 305.9,255.759 304.063,249.855 C 303.796,249.002 298.832,253.099 294.075,256.545 C 288.256,260.76 285.378,262.607 284.419,265.797 C 283.749,268.022 284.408,276.407 283.987,284.453 C 283.644,291.01 282.016,297.473 283.008,299.124 M 253.826,250.663 C 253.495,253.076 253.719,253.789 254.061,253.918 C 255.431,254.436 256.54,254.006 256.892,253.042 C 257.064,252.571 256.771,251.814 256.791,251.286 C 256.808,250.808 257.179,249.959 257.09,249.709 C 256.907,249.197 256.13,249.591 255.788,249.579 C 253.956,249.516 253.934,249.87 253.826,250.663 M 337.391,247.454 C 336.588,247.218 334.104,252.402 331.836,257.846 C 328.053,266.919 323.949,278.075 323.567,278.796 C 322.113,281.541 310.912,299.675 313.338,302.893 C 313.912,303.652 316.996,298.244 319.664,292.821 C 323.32,285.39 327.978,276.354 328.924,274.47 C 332.048,268.253 334.522,262.112 336.092,258.32 C 338.63,252.188 342.186,248.866 337.391,247.454 M 305.258,260.715 C 304.408,266.012 304.132,272.743 303.045,278.994 C 302.085,284.508 300.449,289.745 299.922,293.798 C 299.458,297.372 299.572,299.853 299.596,300.612 C 299.641,302.066 300.947,302.849 301.693,300.601 C 302.35,298.625 300.663,299.211 301.414,296.021 C 302.848,289.933 306.047,279.405 306.119,279.071 C 306.385,277.859 307.211,274.411 307.596,270.339 C 307.887,267.271 307.674,263.902 308.199,260.554 C 308.939,255.85 310.941,250.749 311.298,247.929 C 311.654,245.109 310.365,244.57 308.946,246.383 C 307.621,248.076 306.386,253.694 305.258,260.715 M 265.79,246.854 C 265.165,247.393 265.101,248.368 265.571,249.14 C 266.379,250.467 268.595,250.533 269.186,249.557 C 269.523,249 269.299,247.649 268.802,245.694 C 268.6,244.898 266.3,246.415 265.79,246.854 M 375.438,251.396 C 374.824,258.333 377.185,253.456 379.141,250.154 C 379.733,249.153 381.605,246.66 381.268,245.85 C 381.173,245.623 381.715,244.88 381.021,245.128 C 380.716,245.236 380.171,244.861 379.909,244.974 C 378.774,245.462 378.262,246.515 377.398,247.567 C 376.718,248.398 375.618,249.35 375.438,251.396 M 177.926,243.81 C 177.565,244.09 177.013,244.712 176.237,245.419 C 173.909,247.541 169.719,250.479 170.349,250.834 C 171.223,251.326 172.656,249.898 174.493,249.272 C 175.161,249.045 176.723,248.89 178.13,249.45 C 179.028,249.809 179.434,251.608 180.281,251.999 C 181.843,252.721 183.202,251.577 183.726,250.985 C 184.204,250.445 184.973,249.382 184.837,248.492 C 184.745,247.881 183.991,248.014 183.641,247.437 C 183.018,246.406 182.653,244.745 182.31,244.18 C 182.105,243.841 181.711,244.494 181.139,244.444 C 180.044,244.349 178.391,243.448 177.926,243.81 M 279.615,241.549 C 275.145,242.008 276.916,240.887 275.481,244.841 C 274.284,248.141 278.032,246.668 279.257,246.403 C 280.374,246.163 280.411,244.509 280.382,243.764 C 280.297,241.522 280.89,241.419 279.615,241.549 M 112.939,269.026 L 112.317,269.451 C 112.708,269.599 113.413,269.614 114.271,269.779 C 115.773,270.069 117.622,270.613 119.372,270.719 C 122.458,270.905 131.559,267.105 134.213,265.469 C 138.022,263.122 141.296,259.769 144.539,256.956 C 147.572,254.325 151.337,250.508 155.12,247.496 C 157.939,245.252 162.053,243.412 163.979,242.228 C 165.431,241.335 165.121,240.834 164.998,240.693 C 164.575,240.211 158.208,243.329 148.102,249.343 C 141.198,253.451 134.566,257.803 133.479,258.458 C 129.336,260.956 124.705,261.952 121.867,263.766 C 119.982,264.97 118.8,266.104 118.61,266.43 C 117.898,267.649 118.069,268.947 117.264,268.933 C 115.194,268.894 113.685,269.099 112.939,269.026 M 441.144,242.477 C 440.094,250.073 441.408,249.038 443.043,246.901 C 443.829,245.875 445.387,244.419 445.823,243.158 C 446.642,240.796 444.625,240.007 443.148,240.308 C 442.139,240.513 441.23,241.847 441.144,242.477 M 367.813,249.284 C 368.645,250.147 371.366,249.674 371.583,248.493 C 372.099,245.689 373.689,244.364 374.17,243.481 C 374.903,242.134 374.49,241.37 373.654,240.876 C 373.082,240.538 372.194,240.467 371.805,239.865 C 371.057,238.71 366.158,247.568 367.813,249.284 M 227.272,238.407 C 227.058,238.445 224.934,238.905 223.87,240.558 C 223.312,241.423 222.928,243.306 223.677,244.41 C 224.186,245.16 223.951,244.854 224.875,245.011 C 227.784,245.503 228.52,244.672 229.349,243.291 C 230.081,242.072 231.11,240.451 230.571,238.577 C 230.239,237.424 228.494,238.193 227.272,238.407 M 403.6,235.363 C 402.116,236.211 403.116,238.723 403.153,240.659 C 403.268,246.721 404.09,253.734 404.811,258.951 C 405.087,260.951 407.374,273.706 409.024,275.236 C 411.49,277.523 415.312,278.142 419.069,278.705 C 423.9,279.429 428.581,279.598 429.654,278.194 C 430.62,276.932 430.063,274.808 430.483,272.647 C 431.855,265.591 431.965,255.394 431.313,250.358 C 431.245,249.827 430.496,248.629 429.215,248.057 C 427.216,247.166 424.124,246.881 421.858,245.968 C 417.229,244.099 414.085,242.274 411.793,240.87 C 407.908,238.489 404.263,234.984 403.6,235.363 M 361.486,245.61 C 361.606,245.599 365.33,241.613 366.311,238.85 C 366.693,237.769 367.281,236.997 366.279,235.964 C 363.158,232.743 359.197,238.312 358.498,241.187 C 358.444,241.408 358.751,243.396 359.554,244.601 C 360.104,245.424 361.12,245.646 361.486,245.61 M 291.683,249.855 C 289.793,250.689 291.405,251.217 293.249,250.703 C 294.981,250.222 296.893,248.723 297.075,248.655 C 297.84,248.372 300.738,246.914 302.934,244.528 C 304.459,242.872 305.33,240.867 306.059,238.99 C 306.557,237.705 307.198,236.455 307.104,235.509 C 307.004,234.513 307.035,232.64 305.664,232.348 C 303.53,231.892 299.915,234.545 297.296,238.612 C 294.171,243.464 292.481,249.503 291.683,249.855 M 350.423,237.031 C 351.307,237.466 350.673,239.362 351.258,240.208 C 351.662,240.794 351.197,240.557 351.856,240.809 C 353.584,241.469 354.173,240.565 355.21,239.354 C 355.704,238.776 355.84,237.446 356.416,236.503 C 356.811,235.856 357.738,235.648 357.831,234.968 C 358.493,230.13 356.45,229.242 354.753,229.967 C 353.844,230.355 353.462,231.564 352.701,232.599 C 351.247,234.573 349.8,236.726 350.423,237.031 M 223.677,228.761 C 222.78,230.614 223.107,231.928 223.427,232.84 C 224.184,234.994 227.412,234.986 230.454,233.63 C 237.034,230.695 236.922,228.769 234.305,228.114 C 233.661,227.954 229.723,228.214 226.82,228.419 C 225.192,228.533 223.889,228.321 223.677,228.761 M 337.391,226.96 C 337.391,227.578 329.602,230.622 329.602,231.762 C 329.097,231.762 321.328,237.803 321.17,237.808 C 320.809,237.819 319.065,241.364 317.712,247.536 C 316.359,253.708 315.396,262.507 313.541,270.652 C 310.564,283.729 306.775,296.594 307.304,301.092 C 307.443,302.28 312.367,290.684 317.562,278.684 C 321.287,270.076 326.148,260.778 329.336,253.53 C 332.239,246.932 333.64,242.003 333.796,241.409 C 334.095,240.273 333.901,237.073 335.518,234.471 C 338.162,230.211 339.85,226.96 337.391,226.96 M 310.429,235.364 C 311.207,237.373 313.688,237.845 314.471,233.378 C 314.828,231.342 315.045,227.761 314.252,226.938 C 313.777,226.442 312.516,227.699 311.886,228.751 C 311.514,229.37 310.146,234.636 310.429,235.364 M 347.619,232.963 C 347.689,232.716 348.29,230.286 348.761,228.509 C 350.089,223.493 342.881,228.92 342.4,230.109 C 341.811,231.567 342.13,233.767 343.056,234.983 C 345.297,237.927 347.105,234.767 347.619,232.963 M 385.068,227.619 C 385.382,228.446 387.232,229.389 388.958,229.979 C 389.397,230.13 390.125,230.537 390.97,230.264 C 391.548,230.077 392.477,229.447 392.242,228.692 C 392.041,228.047 390.825,228.096 390.074,227.478 C 389.769,227.227 388.519,226.213 387.199,225.833 C 386.365,225.594 386.359,225.949 385.958,226.39 C 385.684,226.691 384.775,226.849 385.068,227.619 M 296.476,225.116 C 296.396,225.124 291.152,227.048 285.627,229.471 C 281.508,231.278 277.947,233.546 275.332,235.093 C 273.483,236.187 271.746,236.824 272.206,237.11 C 272.513,237.303 275.649,236.777 279.318,235.432 C 283.526,233.89 288.318,231.149 292.291,229.119 C 296.39,227.025 299.586,225.655 298.322,225.085 C 298.021,224.949 297.253,225.037 296.476,225.116 M 378.947,226.316 C 379.576,226.708 380.266,226.324 380.649,226.389 C 382.156,226.645 381.901,225.43 382.839,225.175 C 383.021,225.126 383.422,224.66 383.298,224.496 C 383.092,224.222 382.15,224.161 381.614,223.692 C 380.946,223.109 380.478,222.204 379.294,222.843 C 378.158,223.454 377.558,225.451 378.947,226.316 M 331.136,224.011 C 330.425,222.943 328.161,222.325 326.244,222.079 C 324.846,221.899 323.65,221.649 323.277,222.887 C 320.832,230.976 323.624,229.728 326.208,228.171 C 326.66,227.898 331.755,224.94 331.136,224.011 M 112.359,269.462 L 112.974,269.032 C 112.997,269.031 108.992,268.518 106.25,267.041 C 103.591,265.609 101.816,263.58 101.864,263.265 C 102.039,262.104 103.555,261.433 104.603,260.533 C 106.472,258.93 108.473,257.362 110.049,256.377 C 114.113,253.838 118.985,250.864 123.393,247.858 C 134.078,240.571 143.27,232.824 144.249,232.137 C 152.028,226.672 160.761,222.384 160.571,219.836 C 160.493,218.788 137.545,218.657 135.135,218.688 C 128.228,218.778 122.668,220.521 111.287,226.075 C 105.897,228.705 98.834,233.555 95.09,240.257 C 91.248,247.136 92.473,254.7 96.461,260.93 C 97.606,262.719 98.287,264.246 99.779,265.499 C 100.736,266.302 102.021,267.305 103.713,267.785 C 105.167,268.198 108.182,268.264 109.336,268.595 L 112.359,269.462 z M 369.616,217.91 C 368.489,219.346 369.952,221.724 370.392,222.431 C 370.595,222.756 373.45,222.834 373.892,222.716 C 374.854,222.455 374.835,221.726 374.872,221.234 C 374.95,220.2 373.54,218.433 372.064,217.737 C 371.056,217.263 369.908,217.537 369.616,217.91 M 225.633,225.22 C 227.4,225.062 232.375,225.022 235.256,222.837 C 240.091,219.168 244.676,215.29 237.046,215.855 C 233.878,216.091 230.365,217.316 226.971,218.052 C 224.331,218.624 221.605,218.567 220.174,219.671 C 218.502,220.961 219.006,222.222 220.414,223.446 C 221.435,224.336 222.505,225.499 225.633,225.22 M 361.467,217.232 C 361.41,218.24 362.519,218.509 364.452,218.517 C 365.591,218.521 365.731,216.54 365.698,215.364 C 365.68,214.733 365.397,214.924 364.795,214.485 C 364.593,214.339 364.404,214.212 364.227,214.104 C 362.13,212.842 361.634,214.276 361.467,217.232 M 428.047,215.003 C 428.897,217.01 432.027,219.628 434.224,221.224 C 435.434,222.103 436.771,223.722 438.329,224.421 C 440.207,225.264 441.877,227.892 443.486,228.833 C 445.367,229.934 447.056,229.275 447.238,229.044 C 447.407,228.83 445.375,225.982 442.933,222.724 C 441.785,221.192 439.917,220.155 438.44,218.815 C 436.943,217.456 429.935,213.396 429.492,212.468 C 429.28,212.024 428.029,212.626 427.757,213.206 C 427.501,213.752 427.925,214.713 428.047,215.003 M 309.743,210.066 C 309.682,210.071 303.439,211.767 297.655,214.116 C 292.05,216.394 286.971,219.38 286.247,219.714 C 283.054,221.187 275.808,223.866 273.113,228.295 C 272.324,229.593 271.43,231.723 272.423,232.362 C 273.1,232.797 282.137,228.725 283.227,228.271 C 288.525,226.065 295.495,221.591 296.476,220.914 C 299.314,218.957 305.411,215.934 310.552,214.222 C 313.34,213.293 319.034,212.872 317.363,212.709 C 317.338,212.706 317.619,210.612 315.707,210.188 C 313.682,209.736 310.73,210.005 309.743,210.066 M 329.602,209.467 C 329.321,209.506 326.677,210.404 325.004,211.286 C 323.332,212.167 322.912,213.275 325.364,213.669 C 325.752,213.73 328.868,214.367 332.578,215.294 C 335.104,215.925 336.432,217.073 338.169,217.312 C 339.607,217.509 341.617,216.869 342.227,216.713 C 344.611,216.102 343.498,215.449 342.158,214.481 C 340.542,213.313 338.012,212.511 337.391,211.868 C 336.879,211.337 335.625,211.281 335.011,210.956 C 333.166,209.982 331.611,209.186 329.602,209.467 M 354.853,208.866 C 354.816,208.869 354.059,208.774 353.548,209.393 C 352.891,210.188 352.568,211.912 353.598,213.587 C 354.297,214.725 355.378,214.141 355.86,214.022 C 355.893,214.014 356.613,213.835 356.839,213.147 C 357.064,212.46 356.797,211.264 356.828,210.503 C 356.861,209.706 357.189,208.866 355.991,208.866 C 355.615,208.866 355.231,208.831 354.853,208.866 M 263.993,208.267 C 263.501,208.383 261.595,208.1 258.999,211.613 C 256.482,215.019 253.875,222.588 253.235,225.668 C 252.839,227.571 250.157,235.479 247.845,240.062 C 246.158,243.406 244.645,243.674 244.472,244.997 C 244.195,247.121 246.326,245.809 247.362,245.469 C 253.502,243.458 259.446,225.839 261.262,220.085 C 263.062,214.387 265.195,207.981 263.993,208.267 M 347.619,210.066 C 348.342,209.221 348.816,209.378 348.924,208.995 C 349.197,208.018 347.358,206.624 346.48,205.964 C 343.497,203.72 344.138,203.719 340.195,204.316 C 337.494,204.727 335.628,205.739 335.775,206.534 C 335.979,207.627 339.038,207.514 341.499,208.377 C 344.765,209.522 346.775,211.056 347.619,210.066 M 265.399,222.901 C 263.658,227.125 260.502,235.616 261.77,239.313 C 262.135,240.375 268.498,232.937 271.226,220.914 C 271.383,220.219 272.272,216.78 273.617,213.431 C 275.459,208.841 277.736,204.079 276.304,203.678 C 274.379,203.138 274.153,205.313 273.028,207.191 C 270.131,212.026 267.512,217.778 265.399,222.901 M 164.977,208.904 C 165.512,209.285 165.354,210.257 165.878,210.459 C 166.969,210.878 168.642,210.58 169.998,210.667 C 172.077,210.801 171.736,208.422 169.879,206.577 C 168.718,205.425 165.769,204.324 163.992,203.682 C 160.851,202.545 160.963,205.13 162.361,207.096 C 162.996,207.988 164.305,208.427 164.977,208.904 M 303.109,202.821 C 302.801,202.919 299.764,203.748 296.063,205.308 C 294.256,206.069 288.644,208.715 284.381,211.211 C 283.232,211.883 278.54,214.048 278.416,214.869 C 278.187,216.379 277.564,217.867 278.326,218.353 C 279.015,218.791 281.496,217.511 283.793,216.677 C 285.696,215.987 287.475,215.771 288.002,215.598 C 291.161,214.565 294.434,212.623 297.813,211.19 C 301.889,209.46 305.945,208.165 307.844,206.083 C 308.537,205.323 306.967,204.378 306.105,202.821 C 305.629,201.959 304.089,202.512 303.109,202.821 M 290.909,187.642 C 289.769,188.017 310.801,200.886 311.541,201.62 C 313.283,203.351 316.135,205.784 318.132,207.065 C 320.452,208.555 324.06,203.019 323.53,202.128 C 323.331,201.793 320.504,204.049 318.183,204.222 C 317.094,204.303 315.285,202.923 312.853,201.275 C 309.717,199.152 305.031,196.562 301.342,193.904 C 297.209,190.928 293.842,187.38 291.831,186.922 C 291.459,186.838 291.19,187.549 290.909,187.642 M 351.258,198.019 C 349.837,198.738 347.934,200.554 348.373,201.195 C 349.443,202.755 355.969,201.872 361.87,205.336 C 363.604,206.354 365.528,209.319 367.824,210.477 C 370.827,211.99 374.596,212.038 377.807,214.081 C 382.613,217.139 387.484,220.282 392.063,222.586 C 393.576,223.348 397.749,226.039 402.939,227.285 C 404.167,227.58 405.187,227 406.54,226.849 C 407.981,226.688 409.758,226.959 411.098,227.565 C 415.395,229.51 418.872,232.264 422.14,234.379 C 425.553,236.588 428.712,239.884 429.751,238.81 C 430.921,237.598 432.114,235.707 431.005,234.302 C 429.824,232.807 426.243,231.789 424.357,230.271 C 419.71,226.526 416.988,224.661 411.877,221.075 C 410.025,219.777 408.165,220.546 407.586,220.796 C 407.371,220.888 407.126,221.482 407.788,221.931 C 409.053,222.786 411.911,223.826 412.578,224.848 C 413.273,225.913 410.934,226.288 409.96,225.889 C 406.404,224.431 398.091,218.778 391.573,217.913 C 391.549,217.91 385.284,216.276 379.185,213.193 C 371.463,209.291 363.523,203.715 363.28,203.572 C 359.388,201.298 355.615,199.843 353.615,198.707 C 352.655,198.161 352.398,197.441 351.258,198.019 M 281.454,207.666 C 284.907,207.699 289.803,205.229 293.573,203.144 C 296.413,201.572 298.822,200.448 298.331,199.497 C 296.905,196.735 293.73,195.513 290.748,196.112 C 288.879,196.487 287.319,198.048 285.587,198.94 C 283.896,199.812 282.117,200.081 281.23,201.183 C 280.523,202.063 281.305,202.843 281.223,203.753 C 281.095,205.176 280.334,207.655 281.454,207.666 M 465.408,193.733 C 463.595,196.196 461.88,199.442 461.381,200.255 C 460.385,201.874 459.92,203.78 458.912,204.067 C 457.896,204.357 457.535,202.699 456.861,201.303 C 456.188,199.906 455.2,198.771 454.935,198.902 C 449.464,201.601 451.35,213.35 452.945,214.269 C 453.433,214.55 453.193,216.473 453.101,218.179 C 453.02,219.685 453.17,221.021 452.346,220.914 C 452.117,220.885 449.533,219.485 446.973,217.45 C 442.705,214.058 437.657,209.187 436.641,208.8 C 434.374,207.938 434.087,209.713 433.702,210.093 C 432.718,211.065 435.691,213.143 437.378,214.352 C 438.632,215.25 439.787,217.107 441.519,218.514 C 443.131,219.823 444.789,221.479 448.479,224.088 C 453.261,227.469 460.94,228.092 466.769,225.717 C 468.508,225.008 473.771,222.608 472.955,219.524 C 472.796,218.924 471.803,217.197 470.405,216.547 C 467.912,215.389 464.648,215.188 466.204,213.341 C 466.917,212.495 469.295,212.689 471.582,212.248 C 476.265,211.344 482.279,210.051 484.829,207.666 C 489.567,203.235 488.354,196.553 484.657,193.776 C 482.127,191.876 477.835,192.637 474.33,192.407 C 472.356,192.278 470.059,190.537 468.437,190.597 C 467.175,190.644 466.534,192.205 465.408,193.733 M 162.305,190.173 C 162.305,193.535 162.36,195.132 164.813,198.119 C 166.918,200.684 170.373,202.867 172.533,202.221 C 173.675,201.879 173.358,201.086 173.324,200.277 C 173.273,199.058 172.704,197.283 170.966,195.721 C 169.923,194.783 167.899,194.054 166.88,193.196 C 165.552,192.079 165.227,190.937 164.133,190.399 C 163.44,190.059 162.703,190.173 162.305,190.173 M 262.96,196.086 C 259.058,197.922 254.592,199.557 250.021,201.13 C 248.094,201.792 238.612,205.644 228.716,207.837 C 219.778,209.818 210.289,210.083 207.218,210.466 C 206.51,210.555 206.41,211.237 206.434,211.279 C 207.251,212.744 209.694,213.186 212.353,213.741 C 215.664,214.433 219.497,215.023 223.113,214.735 C 227.72,214.368 231.342,213.088 231.509,213.068 C 234.917,212.664 248.428,205.827 248.42,209.821 C 248.415,212.257 247.134,214.666 246.115,217.041 C 245.955,217.412 242.46,223.663 239.231,230.657 C 235.335,239.099 231.672,248.521 232.707,248.655 C 235.162,248.971 236.419,245.206 238.791,240.106 C 240.362,236.729 243.024,232.861 244.682,228.864 C 245.955,225.794 246.757,222.695 248.271,220.003 C 249.949,217.019 249.394,213.58 250.254,211.366 C 251.211,208.903 253.369,206.587 253.841,206.573 C 253.915,206.571 258.948,206.355 265.604,203.673 C 274.517,200.08 285.127,195.192 286.784,193.128 C 287.51,192.224 286.129,190.795 284.323,189.926 C 281.031,188.344 280.797,187.861 280.187,187.549 C 279.483,187.188 275.791,190.05 262.96,196.086 M 268.187,181.126 C 267.365,180.893 265.543,182.111 264.285,182.589 C 259.103,184.557 251.572,188.88 247.729,190.173 C 245.379,190.963 235.036,194.938 224.363,197.22 C 210.64,200.153 195.15,200.473 195.31,201.339 C 196.292,206.67 197.267,207.825 202.947,207.639 C 209.59,207.421 221.384,205.243 227.682,203.885 C 240.193,201.185 253.484,196.946 262.67,192.103 C 264.327,191.229 272.101,189.158 274.202,186.292 C 275.64,184.33 270.373,181.746 268.187,181.126 M 169.495,190.772 C 169.833,191.176 172.08,192.531 173.482,192.517 C 174.552,192.506 176.334,188.858 176.117,187.822 C 175.847,186.528 174.138,183.544 169.25,180.688 C 167.738,179.804 166.396,178.859 165.495,179.286 C 162.893,180.52 163.907,184.156 165.557,186.567 C 166.477,187.913 168.346,189.405 169.495,190.772 M 255.562,174.48 C 254.539,174.67 249.753,176.914 243.473,179.341 C 231.896,183.814 221.728,186.608 209.271,188.183 C 205.875,188.612 201.701,187.593 199.583,187.808 C 195.808,188.19 195.041,189.447 194.788,190.173 C 192.345,197.187 195.872,196.488 207.104,195.327 C 212.21,194.799 218.676,194.574 224.134,192.743 C 228.918,191.139 234.601,190.465 240.338,188.684 C 251.084,185.346 261.601,181.086 263.8,180.427 C 267.468,179.327 263.145,178.242 261.493,176.854 C 259.368,175.071 258.088,174.012 255.562,174.48 M 326.718,178.438 C 325.113,179.303 323.616,180.75 321.666,181.086 C 319,181.545 316.242,180.312 314.413,179.325 C 313.416,178.788 312.703,178.671 311.6,177.719 C 310.71,176.951 308.586,175.313 308.746,176.684 C 308.77,176.879 309.471,177.507 309.559,177.833 C 309.627,178.091 311.006,178.725 312.498,179.853 C 315.384,182.035 318.033,183.479 320.327,182.956 C 321.725,182.639 326.38,181.589 329.335,180.061 C 329.797,179.822 332.194,178.036 334.357,176.62 C 338.138,174.146 336.748,173.496 335.034,174.115 C 334.313,174.376 333.249,175.306 331.963,175.984 C 330.085,176.976 327.871,177.817 326.718,178.438 M 352.456,173.279 C 351.669,173.415 351.676,174.848 351.973,175.326 C 352.487,176.155 353.609,176.068 354.7,176.346 C 357.27,176.997 360.188,179.056 362.337,180.756 C 363.461,181.645 364.125,183.015 365.364,183.062 C 368.647,183.188 371.033,181.828 370.716,180.643 C 370.592,180.179 370.707,179.531 369.318,179.325 C 366.603,178.922 365.257,177.348 363.221,176.141 C 361.278,174.99 358.742,173.979 355.877,173.585 C 354.756,173.432 353.74,173.058 352.456,173.279 M 239.534,171.213 C 233.944,173.305 227.125,175.687 220.282,177.15 C 219.108,177.401 214.586,178.705 209.863,179.202 C 203.79,179.841 197.383,179.68 197.33,179.867 C 195.976,184.629 196.83,184.296 203.818,184.127 C 203.917,184.125 212.872,183.578 220.584,182.417 C 226.034,181.598 230.864,180.091 231.509,179.926 C 236.205,178.719 242.953,176.31 247.528,173.945 C 248.868,173.253 250.713,172.99 251.407,172.232 C 252.797,170.715 251.812,168.351 249.564,168.024 C 247.58,167.736 244.767,169.254 239.534,171.213 M 167.875,173.537 C 168.223,177.545 170.98,178.966 172.396,179.845 C 173.739,180.678 175.433,181.136 176.737,180.343 C 177.286,180.01 177.184,179.245 177.433,178.713 C 177.979,177.542 178.445,176.309 178.701,174.889 C 178.991,173.279 177.986,172.833 177.167,171.728 C 176.606,170.971 176.789,169.329 174.93,169.078 C 174.057,168.96 172.653,167.243 171.378,167.603 C 170.614,167.817 169.929,169.803 169.341,170.466 C 168.703,171.185 167.724,171.799 167.875,173.537 M 256.16,164.833 C 256.16,165.975 254.974,166.634 256.16,166.634 C 256.16,168.489 260.397,168.807 260.397,170.278 C 261.421,170.278 264.592,171.743 264.592,172.68 C 265.615,172.68 268.786,174.144 268.786,175.08 L 270.027,175.08 C 270.027,176.156 275.419,178.626 275.419,181.126 C 276.56,181.126 277.816,180.962 277.816,179.926 C 275.22,179.926 275.325,176.281 273.622,176.281 C 273.622,173.727 270.027,173.422 270.027,172.079 C 267.57,172.079 266.322,169.679 263.393,169.679 C 263.393,168.606 260.397,168.772 260.397,167.277 C 258.192,167.277 258.376,164.833 256.16,164.833 M 342.839,170.557 C 343.642,171.374 345.432,171.301 346.051,170.477 C 346.558,169.802 342.987,167.015 342.421,166.684 C 341.755,166.295 340.505,166.137 339.388,165.668 C 337.619,164.925 335.903,163.911 335.243,163.847 C 331.641,163.497 335.467,165.028 337.504,166.639 C 339.39,168.129 340.715,168.396 342.839,170.557 M 209.925,174.266 C 213.678,174.099 217.178,174.232 220.809,173.516 C 223.976,172.892 227.143,172.24 229.086,170.969 C 230.761,169.871 230.656,167.047 231.628,166.038 C 234.003,163.573 233.994,162.903 232.154,163.396 C 231.377,163.605 230.704,164.213 229.051,164.67 C 226.613,165.345 223.217,167.396 219.355,168.174 C 215.025,169.044 209.428,169.295 205.809,170.102 C 201.933,170.966 201.504,171.523 201.277,173.075 C 200.621,177.55 203.319,174.56 209.925,174.266 M 181.395,162.255 C 181.392,161.229 181.345,159.492 180.032,159.17 C 178.59,158.816 176.748,159.867 176,160.32 C 171.956,162.769 176.512,169.075 179.501,169.021 C 181.066,168.994 181.406,166.709 181.395,162.255 M 127.381,158.831 C 127.381,160.112 127.984,163.032 129.179,163.032 C 129.179,165.161 132.218,165.858 132.218,167.277 C 133.972,167.277 134.355,169.078 136.412,169.078 C 136.412,169.822 138.809,170.218 138.809,171.479 C 140.438,171.479 140.827,172.68 142.447,172.68 C 142.447,173.938 145.442,173.07 145.442,174.48 C 145.954,174.48 146.641,175.185 146.641,175.681 L 153.874,175.681 C 153.874,173.725 155.671,172.812 155.671,170.879 C 157.162,170.879 156.988,167.877 158.068,167.877 C 158.068,166.125 155.671,168.229 155.671,169.679 C 154.543,169.679 154.569,171.479 152.675,171.479 C 152.675,172.707 150.278,172.052 150.278,173.279 C 148.563,173.279 143.045,173.337 143.045,171.479 C 141.284,171.479 141.043,170.278 138.809,170.278 C 138.809,169.005 135.813,168.761 135.813,167.277 C 134.565,167.277 133.719,164.232 131.619,164.232 C 131.619,162.19 129.179,161.877 129.179,160.632 C 127.801,160.632 128.463,158.831 127.381,158.831 M 500.494,158.23 C 499.998,158.281 496.927,159.304 494.734,160.218 C 491.2,161.691 487.435,164.542 483.335,166.929 C 477.534,170.307 471.347,173.435 466.644,176.286 C 461.911,179.156 456.396,181.833 451.464,184.929 C 441.928,190.913 433.456,196.183 429.417,197.961 C 425.973,199.478 422.554,201.303 420.482,202.765 C 417.252,205.044 416.035,206.762 412.887,206.456 C 409.673,206.145 406.214,202.703 400.521,198.645 C 395.563,195.112 389.719,193.028 384.84,190.921 C 382.825,190.052 381.195,187.185 378.911,187.343 C 377.818,187.418 376.85,187.723 376.075,188.298 C 375.481,188.739 382.49,191.963 390.291,196.022 C 395.293,198.625 400.487,201.805 404.65,204.05 C 408.506,206.129 410.892,208.335 411.424,208.677 C 414.138,210.424 423.725,204.066 435.934,195.774 C 443.546,190.604 454.396,185.401 462.163,180.366 C 471.006,174.634 483.16,168.141 492.75,162.96 C 497.78,160.243 503.198,157.951 500.494,158.23 M 227.828,161.134 C 230.753,160.418 233.237,160.162 232.954,159.099 C 231.722,154.468 225.998,157.193 222.449,158.083 C 217.911,159.22 212.774,159.701 210.009,160.643 C 202.951,163.045 204.496,166.245 208.576,166.109 C 214.539,165.912 226.313,161.504 227.828,161.134 M 457.061,159.016 C 453.564,160.802 449.83,163.071 448.802,163.77 C 447.548,164.619 444.726,166.407 442.449,167.86 C 441.342,168.566 440.563,169.313 439.774,169.618 C 438.881,169.965 438.003,169.854 437.104,170.408 C 436.204,170.963 436.078,171.995 437.992,172.135 C 438.923,172.203 441.233,170.917 444.125,169.533 C 449.108,167.147 455.819,163.678 460.178,160.632 C 461.323,159.831 462.65,158.916 463.821,158.404 C 464.676,158.03 465.342,157.766 465.217,157.339 C 465.113,156.983 464.344,156.136 463.144,156.141 C 461.866,156.145 460.339,157.34 457.061,159.016 M 355.991,374.115 C 356.637,376.246 357.87,374.849 360.634,378.622 C 366.096,386.082 374.494,399.418 374.686,399.475 C 375.163,399.617 385.51,413.282 395.899,428.422 C 398.989,432.925 401.604,438.421 404.563,442.65 C 408.963,448.937 413.542,453.842 416.262,457.594 C 418.122,460.161 419.09,462.317 419.238,462.759 C 422.422,472.2 420.894,470.963 418.151,474.059 C 416.905,475.466 414.523,479.61 413.847,482.842 C 412.164,490.884 411.477,497.99 416.662,500.83 C 417.51,501.295 418.084,502.365 419.238,502.547 C 420.536,502.753 424.254,503.307 424.631,510.994 C 424.649,511.372 426.088,527.16 428.047,543.545 C 430.087,560.61 433.798,577.903 434.859,579.395 C 436.062,581.084 436.492,580.413 436.793,576.646 C 436.975,574.373 436.889,571.145 436.735,567.662 C 436.644,565.573 436.106,564.969 435.798,563.583 C 434.906,559.577 435.729,555.066 435.783,551.275 C 435.846,546.979 435.193,543.605 434.859,542.936 C 433.745,540.699 433.659,534.133 432.804,527.141 C 431.683,517.981 429.993,507.844 431.8,503.969 C 432.903,501.603 435.584,502.033 436.753,500.691 C 437.98,499.28 437.625,493.48 437.615,489.086 C 437.612,487.729 437.657,485.032 438.497,484.873 C 439.448,484.692 440.056,486.333 441.619,487.813 C 443.39,489.49 445.91,491.551 448.873,493.579 C 452.109,495.792 459.598,502.468 467.999,512.889 C 470.829,516.399 474.563,519.525 478.104,523.032 C 482.14,527.026 488.273,530.105 492.337,534.204 C 493.735,535.614 495.895,537.343 496.967,539.184 C 498.107,541.145 498.158,543.22 499.532,544.698 C 501.005,546.283 503.002,546.062 504.174,547.754 C 513.744,561.56 524.442,570.908 525.121,573.078 C 525.318,573.709 527.688,575.211 529.63,576.213 C 531.141,576.992 534.053,577.037 532.354,575.521 C 531.291,574.575 528.49,570.557 524.68,564.619 C 522.627,561.42 518.493,559.241 515.968,555.106 C 513.649,551.311 511.95,546.324 509.478,541.977 C 505.642,535.231 500.72,528.159 496.923,521.075 C 482.99,495.083 465.725,448.567 462.487,416.556 C 462.029,412.032 460.365,401.85 460.875,390.87 C 461.674,373.657 465.892,355.8 468.806,346.663 C 470.478,341.424 472.547,333.853 474.97,329.344 C 481.078,317.976 492.401,304.925 495.033,303.005 C 496.036,302.273 505.405,290.998 515.982,281.602 C 525.613,273.046 536.732,267.216 539.448,265.57 C 541.091,264.575 552.574,255.844 549.906,255.095 C 545.392,253.825 521.614,273.622 502.267,275.907 C 501.847,275.957 500.839,276.039 499.372,276.146 C 492.842,276.619 477.219,279.405 463.911,280.188 C 458.141,280.528 452.666,281.305 448.696,281.04 C 445.261,280.812 440.89,280.305 440.123,277.992 C 438.915,274.352 441.353,266.647 441.493,265.018 C 441.9,260.324 440.598,255.276 441.521,253.088 C 441.944,252.083 445.845,250.679 447.751,248.539 C 449.911,246.114 450.101,242.982 450.523,242.723 C 452.642,241.422 453.993,242.536 455.718,241.801 C 461.324,239.408 459.723,234.841 461.82,233.494 C 466.836,230.275 470.734,230.967 473.688,228.869 C 475.876,227.314 476.826,225.053 478.012,222.785 C 478.781,221.313 479.047,219.6 479.906,218.423 C 480.561,217.526 480.941,216.554 482.01,215.963 C 484.741,214.453 488.911,213.909 491.038,212.194 C 493.918,209.872 496.145,203.271 496.111,198.066 C 496.071,191.688 491.932,187.484 489.289,184.165 C 488.088,182.656 487.634,181.22 487.244,180.038 C 486.718,178.44 486.547,175.224 488.771,173.021 C 493.113,168.72 502.882,166.436 512.795,161.57 C 523.682,156.228 535.308,149.602 544.416,145.728 C 551.894,142.549 560.601,140.271 568.745,140.199 C 571.821,140.173 576.131,140.869 578.137,144.007 C 587.989,159.419 560.439,166.291 560.643,156.499 C 560.757,151.011 565.678,151.793 568.543,153.785 C 568.992,154.098 569.635,155.216 569.673,155.904 C 569.77,157.623 570.419,159.772 570.916,158.008 C 571.431,156.18 572.877,151.308 570.659,148.777 C 569.225,147.141 566.687,145.364 563.921,144.779 C 560.788,144.117 557.401,144.866 555.715,146.931 C 553.753,149.332 552.98,152.684 552.811,153.498 C 552.531,154.833 551.538,157.926 551.848,159.96 C 552.627,165.091 558.579,169.093 565.863,169.328 C 573.848,169.587 581.783,165.654 586.533,160.099 C 588.116,158.247 589.332,156.736 590.377,154.62 C 591.184,152.984 593.223,147.362 592.495,142.884 C 591.163,134.677 589.424,129.405 583.785,126.308 C 581.903,125.274 579.547,125.758 577.023,124.745 L 68.149,125.006 C 64.779,125.264 63.229,125.742 62.989,125.758 C 61.743,125.838 59.34,128.184 58.517,131.332 C 57.922,133.606 58.465,136.441 59.002,139.271 C 59.539,142.101 60.071,144.926 62.26,146.432 C 63.906,147.565 66.176,146.933 68.98,146.896 C 69.074,146.895 71.049,145.922 71.715,144.464 C 72.04,143.751 72.587,143.137 71.42,142.051 C 70.737,141.415 69.057,141.271 68.784,140.776 C 66.87,137.316 78.51,136.941 82.483,140.291 C 87.466,144.49 89.832,145.587 91.383,148.679 C 92.33,150.565 92.486,152.588 93.149,154.008 C 94.184,156.222 95.647,157.302 97.082,156.684 C 98.003,156.287 98.195,154.657 100.21,152.613 C 106.621,146.108 118.868,136.355 127.103,144.455 C 129.262,146.579 131.492,148.971 131.253,151.309 C 130.997,153.813 127.856,155.029 124.176,153.43 C 122.881,152.867 122.3,151.232 120.436,149.808 C 118.195,148.096 115.582,147.03 115.601,147.703 C 115.632,148.802 117.418,151.385 119.205,155 C 121.535,159.712 124.417,165.87 129.026,169.629 C 134.026,173.706 138.734,176.774 143.931,178.229 C 147.261,179.163 150.911,178.665 154.577,179.874 C 154.74,179.928 154.897,179.982 155.047,180.038 C 155.478,180.197 154.009,190.415 154.006,191.349 C 153.988,197.04 154.103,202.99 156.093,208.113 C 158.027,213.089 162.045,216.175 157.309,216.274 C 153.869,216.346 144.469,214.776 135.439,215.089 C 123.453,215.503 114.548,220.187 111.736,221.027 C 100.287,224.45 86.67,234.136 79.427,243.613 C 76.458,247.498 74.857,251.557 73.014,255.17 C 71.132,258.858 67.828,265.655 69.396,280.718 C 69.504,281.755 67.027,280.637 66.584,281.31 C 65.142,283.502 67.175,285.245 69.9,287.733 C 76.392,293.662 89.63,300.536 89.467,304.103 C 89.235,309.165 88.149,307.856 81.899,313.206 C 68.508,324.673 42.163,346.445 39.493,350.64 C 38.186,352.692 37.509,354.924 38.415,355.116 C 43.946,356.295 78.743,323.736 82.847,322.899 C 83.683,322.729 97.804,307.137 97.869,315.696 C 97.87,315.762 100.038,339.688 102.46,363.218 C 104.48,382.837 105.985,402.259 106.899,406.721 C 107.055,407.479 111.861,458.773 113.859,476.911 C 115.628,492.961 117.758,508.714 118.969,525.049 C 119.45,531.532 120.178,537.228 119.864,541.595 C 119.485,546.866 117.892,550.291 116.529,551.983 C 113.44,555.817 102.706,534.063 102.706,527.887 C 100.598,527.887 95.501,501.347 95.473,501.347 C 95.473,496.859 93.658,487.6 91.476,479.504 C 89.159,470.91 83.503,460.748 82.216,461.86 C 82.127,461.937 80.14,465.375 82.458,466.986 C 83.636,467.805 84.484,473.99 85.473,480.342 C 86.698,488.212 86.032,498.65 87.513,507.431 C 90.153,523.084 92.068,537.668 92.307,538.401 C 93.449,541.916 108.697,573.008 108.697,573.078 C 108.719,586.122 107.725,589.72 108.552,589.957 C 110.399,590.489 115.456,574.15 120.952,556.66 C 127.273,536.55 133.894,514.729 133.991,512.194 C 133.994,512.098 135.719,505.854 136.099,505.495 C 136.503,505.114 137.614,503.795 138.185,503.748 C 138.947,503.686 139.839,502.618 140.656,502.826 C 143.15,503.459 145.321,506.296 147.986,508.149 C 152.428,511.238 157.045,513.821 158.043,515.239 C 160.307,518.453 170.112,521.498 170.112,526.687 C 170.289,526.687 176.536,537.534 178.872,537.641 C 179.411,537.666 180.527,536.872 179.741,535.733 C 179.198,534.946 178.393,533.933 177.603,533.123 C 174.171,529.608 170.843,520.975 170.573,512.316 C 170.293,503.36 175.496,486.065 179.604,477.619 C 188.309,459.727 218.238,426.356 218.816,438.663 C 218.835,439.078 219.604,439.937 219.423,440.765 C 218.444,445.234 212.83,453.058 211.959,453.735 C 209.021,456.02 203.435,467.728 201.757,480.677 C 200.055,493.809 202.756,507.401 200.688,506.458 C 198.95,505.666 197.763,503.879 196.542,502.928 C 194.973,501.706 193.568,501.42 193.202,501.72 C 192.366,502.405 193.588,505.867 196.084,509.085 C 197.607,511.048 201.621,515.137 206.253,519.529 C 209.321,522.439 212.881,524.827 215.38,529.178 C 221.981,540.667 229.264,553.411 235.866,564.354 C 240.84,572.598 245.652,579.484 248.233,585.928 C 249.086,588.055 249.853,587.844 250.096,589.968 C 251.147,599.173 246.987,610.695 244.867,620.015 C 242.036,632.457 241.736,646.23 239.316,656.899 C 239.076,657.96 235.506,653.135 230.876,648.313 C 227.393,644.685 220.015,638.838 217.865,633.273 C 215.24,626.478 215.708,619.741 215.44,614.607 C 215.188,609.785 214.127,606.376 214.023,605.663 C 213.333,600.986 208.337,594.414 202.441,589.09 C 196.36,583.598 186.13,575.319 179.125,564.411 C 172.121,553.502 168.34,539.964 164.845,540.153 C 163.354,540.234 162.34,544.159 162.578,549.456 C 162.712,552.427 163.744,555.831 164.078,559.229 C 164.169,560.159 171.525,576.854 169.347,577.541 C 166.104,578.563 162.399,575.149 158.217,573.225 C 153.478,571.043 148.459,570.329 147.8,571.141 C 147.06,572.05 153.899,580.631 163.935,588.341 C 169.088,592.3 175.041,595.57 179.852,599.597 C 185.658,604.456 189.915,610.026 190.569,614.109 C 190.931,616.367 191.975,636.405 193.565,636.405 C 193.565,640.541 197.76,643.725 197.76,645.452 C 198.155,645.452 199.99,647.227 200.199,647.252 C 201.929,647.462 205.455,649.683 209,654.055 C 212.333,658.168 211.829,661.649 215.146,667.016 C 217.393,670.65 222.084,670.813 223.507,675.032 C 224.672,678.481 225.355,682.039 227.191,685.291 C 228.811,688.161 231.6,690.741 232.539,693.573 C 234.2,698.579 233.417,704.074 232.083,705.734 C 229.216,709.303 228.636,711.956 228.308,713.535 C 227.886,715.565 228.521,715.014 237.584,714.631 C 237.757,714.624 235.207,711.648 235.147,707.907 C 235.075,703.392 238,697.761 238.075,694.887 C 238.289,686.699 240.327,678.015 242.07,669.168 C 246.104,648.699 251.771,627.359 252.541,609.265 C 252.579,608.363 252.728,603.224 254.171,599.489 C 254.736,598.027 254.979,596.677 256.273,596.035 C 256.93,595.71 258.53,595.427 259.174,596.016 C 259.528,596.339 270.764,603.511 280.061,609.664 C 286.218,613.738 292.077,617.001 292.257,617.711 C 292.637,619.206 303.154,624.96 312.823,632.273 C 318.247,636.375 323.32,641.557 326.392,645.318 C 330.587,650.456 345.822,668.986 348.209,664.596 C 349.581,662.07 344.563,658.413 339.709,653.549 C 335.224,649.056 329.388,642.543 325.87,636.884 C 324.494,634.669 324.512,632.897 323.542,630.959 C 322.224,628.322 319.521,617.544 320.689,607.154 C 323.03,586.33 338.196,578.44 356.389,577.328 C 363.248,576.909 372.887,575.408 373.487,576.722 C 374.799,579.589 417.237,616.785 416.908,611.963 C 416.898,611.81 415.982,609.264 414.461,606.851 C 413.726,605.685 412.452,602.84 410.39,600.999 C 406.714,597.717 402.234,595 401.777,594.815 C 399.241,593.792 394.79,584.031 389.023,571.862 C 378.74,550.164 367.14,526.865 359.492,503.233 C 354.197,486.869 351.431,470.469 349.518,453.773 C 348.905,448.417 349.944,443.698 349.588,438.57 C 347.804,412.901 349.12,394.361 354.95,370.028 C 355.94,365.893 356.52,367.261 356.856,366.807 C 357.718,365.647 355.526,372.581 355.991,374.115"
   style="fill:#000000;fill-rule:evenodd"
   id="path2184" />
				</g>
				<g
   transform="matrix(0.8586,0,0,-0.8586,28.0583,696.105)"
   id="g2186">
					<path
   d="M 56.438,91.166 C 53.516,91.566 50.932,92.001 48.688,92.469 L 48.688,64.783 C 48.688,61.542 48.557,59.481 48.295,58.603 C 48.033,57.723 47.425,56.728 46.472,55.616 C 44.747,53.702 41.3,50.678 36.13,46.542 C 38.714,45.28 40.807,44.435 42.407,44.005 C 45.176,43.267 47.837,42.897 50.392,42.897 C 51.745,42.897 53.76,43.063 56.438,43.397 L 56.438,91.166 z M 39.125,94.104 L 36.673,94.337 C 32.539,90.787 29.501,87.237 27.558,83.688 C 24.936,78.903 23.625,73.98 23.625,68.918 C 23.625,60.275 27.172,53.222 34.267,47.759 C 36.519,49.642 37.891,51.169 38.385,52.342 C 38.878,53.515 39.125,55.907 39.125,59.519 L 39.125,94.104 z M 77.5,104.335 L 79.25,103.147 C 78.601,100.153 77.712,97.791 76.583,96.063 C 75.454,94.334 73.799,92.968 71.619,91.965 C 69.439,90.961 66.927,90.46 64.082,90.46 C 62.566,90.46 60.727,90.553 58.563,90.738 L 58.563,43.96 C 63.246,45.378 66.976,47.205 69.749,49.441 C 72.522,51.677 75.096,54.892 77.469,59.085 L 79.25,58.241 C 77.892,54.106 76.317,50.79 74.528,48.291 C 71.658,44.249 67.955,41.048 63.419,38.688 C 58.882,36.327 53.636,35.147 47.681,35.147 C 41.878,35.147 36.447,36.259 31.387,38.482 C 28.455,39.779 25.77,41.602 23.332,43.949 C 20.894,46.296 18.896,49.137 17.337,52.473 C 15.778,55.809 15,59.592 15,63.823 C 15,68.085 15.848,72.161 17.543,76.053 C 19.238,79.943 21.735,83.665 25.034,87.217 C 27.13,89.44 30.09,91.896 33.912,94.583 L 28.1,94.897 C 25.946,95.021 23.563,94.565 20.949,93.53 C 18.335,92.495 16.298,91.113 14.837,89.384 C 13.376,87.654 12.107,85.075 11.031,81.647 L 9.25,82.679 C 10.299,87.059 11.656,90.468 13.322,92.905 C 15.543,96.144 18.473,98.65 22.113,100.424 C 25.753,102.197 29.902,103.085 34.561,103.085 C 37.799,103.085 43.521,102.397 51.727,101.022 C 59.932,99.647 65.577,98.96 68.662,98.96 C 70.729,98.96 72.31,99.276 73.405,99.909 C 74.5,100.542 75.865,102.018 77.5,104.335"
   style="fill:#000000"
   id="path2188" />
				</g>
				<g
   transform="matrix(0.8586,0,0,-0.8586,28.0583,696.105)"
   id="g2190">
					<path
   d="M 102.722,101.522 L 103.16,100.397 C 100.947,98.979 99.435,97.467 98.625,95.863 C 97.814,94.26 97.41,91.715 97.41,88.229 L 97.41,73.147 L 111.691,84.522 C 114.765,82.545 116.768,80.637 117.7,78.799 C 118.631,76.961 119.097,73.833 119.097,69.415 L 119.097,48.422 C 119.097,44.405 118.679,41.47 117.845,39.616 C 116.516,36.589 114.059,33.747 110.475,31.09 C 105.777,27.568 99.796,24.524 92.535,21.96 L 91.91,23.71 C 97.8,26.152 101.902,28.378 104.214,30.387 C 106.527,32.396 108.039,34.529 108.749,36.785 C 109.272,38.485 109.535,42.905 109.535,50.046 L 109.535,69.474 C 109.535,71.638 109.316,73.137 108.88,73.972 C 108.225,75.115 107.025,76.243 105.28,77.356 L 97.41,70.928 L 97.41,45.085 L 100.722,41.741 L 92.566,35.147 L 84.285,41.741 L 87.972,45.397 L 87.972,87.504 C 87.972,91.328 87.635,93.95 86.962,95.369 C 86.29,96.788 84.959,98.068 82.972,99.21 L 83.472,100.397 C 85.099,99.938 86.403,99.426 87.385,98.859 C 88.368,98.293 89.657,97.306 91.253,95.897 C 93.149,97.68 94.967,98.986 96.708,99.816 C 98.448,100.646 100.453,101.215 102.722,101.522"
   style="fill:#000000"
   id="path2192" />
				</g>
				<g
   transform="matrix(0.8586,0,0,-0.8586,28.0583,696.105)"
   id="g2194">
					<path
   d="M 138.874,79.218 L 138.225,78.86 L 138.225,57.824 L 150.414,66.367 L 138.874,79.218 z M 145.913,84.522 L 158.975,69.253 L 138.225,54.71 L 138.225,46.272 L 148.96,42.022 L 156.225,46.96 L 157.225,45.585 L 142.256,35.147 C 139.202,36.775 136.686,37.942 134.711,38.649 C 132.737,39.356 129.928,40.105 126.288,40.897 L 126.288,42.085 C 127.331,42.702 128.029,43.466 128.382,44.377 C 128.736,45.287 128.913,47.256 128.913,50.282 L 128.913,76.772 C 131.815,77.817 134.224,78.771 136.139,79.633 C 137.528,80.278 140.786,81.908 145.913,84.522"
   style="fill:#000000"
   id="path2196" />
				</g>
				<g
   transform="matrix(0.8586,0,0,-0.8586,28.0583,696.105)"
   id="g2198">
					<path
   d="M 226.801,48.897 C 230.441,48.774 234.027,48.243 237.561,47.306 C 241.094,46.367 245.236,44.775 249.988,42.53 L 249.988,58.335 C 247.674,59.904 245.669,60.974 243.972,61.543 C 242.274,62.112 240.438,62.397 238.464,62.397 C 236.489,62.397 234.646,62.112 232.933,61.543 C 231.22,60.974 229.176,59.904 226.801,58.335 L 226.801,48.897 z M 226.801,60.96 C 229.269,62.323 231.374,63.268 233.118,63.795 C 234.861,64.321 236.644,64.585 238.464,64.585 C 240.284,64.585 242.035,64.329 243.717,63.818 C 245.398,63.307 247.488,62.354 249.988,60.96 L 249.988,75.335 C 247.427,73.853 245.29,72.857 243.578,72.349 C 241.865,71.839 240.007,71.585 238.001,71.585 C 236.088,71.585 234.329,71.816 232.725,72.281 C 231.12,72.746 229.146,73.659 226.801,75.022 L 226.801,60.96 z M 226.801,77.772 C 229.114,76.21 231.127,75.132 232.84,74.538 C 234.553,73.944 236.381,73.647 238.325,73.647 C 240.269,73.647 242.112,73.944 243.855,74.538 C 245.599,75.132 247.643,76.21 249.988,77.772 C 249.957,80.427 249.558,82.633 248.788,84.393 C 248.019,86.151 246.381,88.049 243.873,90.086 C 241.365,92.123 237.682,94.36 232.82,96.799 L 226.801,92.811 L 226.801,77.772 z M 224.676,91.403 L 219.113,87.72 L 219.113,23.897 L 224.676,23.897 L 224.676,91.403 z M 209.551,81.386 L 199.451,74.697 C 201.551,73.777 203.343,72.805 204.825,71.778 C 206.308,70.751 207.883,69.396 209.551,67.71 L 209.551,81.386 z M 224.676,103.647 L 226.801,103.647 L 226.801,95.337 L 239.582,103.647 C 246.098,99.54 250.598,96.252 253.084,93.782 C 255.57,91.312 257.207,88.996 257.994,86.835 C 258.781,84.673 259.176,81.493 259.176,77.294 L 259.176,47.791 L 244.957,35.147 C 241.158,36.685 237.87,37.807 235.091,38.514 C 232.312,39.221 229.549,39.682 226.801,39.897 L 226.801,21.835 L 209.551,21.835 L 209.551,40.71 C 204.908,40.436 201.071,39.75 198.039,38.653 C 195.006,37.556 191.958,35.804 188.895,33.397 L 187.426,35.179 C 191.662,39.751 195.311,42.958 198.372,44.8 C 201.433,46.642 205.159,48.007 209.551,48.897 C 209.52,53.103 208.978,56.48 207.926,59.031 C 206.873,61.582 204.97,63.9 202.215,65.988 C 199.46,68.075 195.947,69.69 191.676,70.835 L 191.676,72.772 C 193.859,73.882 195.798,75.007 197.49,76.148 L 209.551,84.069 L 209.551,87.282 C 209.551,90.28 209.257,92.475 208.669,93.867 C 208.081,95.26 206.983,96.415 205.375,97.333 C 203.767,98.251 201.988,98.71 200.04,98.71 C 197.905,98.71 195.523,97.918 192.895,96.335 L 191.676,97.741 C 193.838,99.772 195.962,101.265 198.048,102.218 C 200.134,103.171 202.443,103.647 204.978,103.647 C 207.789,103.647 210.346,103.057 212.647,101.876 C 214.949,100.695 216.587,99.224 217.561,97.46 C 218.533,95.696 219.051,93.313 219.113,90.308 L 224.676,94.042 L 224.676,103.647 z "
   style="fill:#000000"
   id="path2200" />
				</g>
				<g
   transform="matrix(0.8586,0,0,-0.8586,28.0583,696.105)"
   id="g2202">
					<path
   d="M 280.915,100.335 L 286.79,100.335 L 280.415,90.335 L 278.54,90.335 L 280.915,100.335 z M 277.446,84.522 L 285.665,77.741 L 281.977,74.147 L 281.977,48.972 C 281.977,46.317 282.198,44.59 282.639,43.788 C 283.081,42.985 283.537,42.585 284.007,42.585 C 284.338,42.585 284.642,42.663 284.918,42.821 C 285.305,43.041 286.106,43.671 287.321,44.71 L 288.415,43.272 L 278.571,35.147 C 276.097,36.907 274.504,38.567 273.793,40.127 C 273.083,41.686 272.727,44.411 272.727,48.302 L 272.727,74.147 L 269.227,77.741 L 277.446,84.522 z "
   style="fill:#000000"
   id="path2204" />
				</g>
				<g
   transform="matrix(0.8586,0,0,-0.8586,28.0583,696.105)"
   id="g2206">
					<path
   d="M 321.005,84.522 L 327.974,76.116 L 321.005,69.897 L 315.189,77.322 L 310.599,73.16 L 310.599,46.21 L 315.85,42.397 L 320.599,46.147 L 321.661,44.647 L 309.88,35.147 C 307.34,37.403 305.211,39.026 303.493,40.016 C 301.774,41.005 299.892,41.778 297.849,42.335 L 297.849,43.272 C 299.217,44.231 300.112,45.199 300.532,46.174 C 300.952,47.148 301.162,49.013 301.162,51.767 L 301.162,70.706 C 301.162,73.089 300.899,74.675 300.375,75.464 C 299.852,76.253 299.276,76.647 298.647,76.647 C 297.958,76.647 297.015,76.043 295.818,74.835 L 294.724,76.147 L 304.318,84.522 C 306.935,82.519 308.72,80.776 309.675,79.298 C 310.291,78.372 310.599,77.093 310.599,75.46 L 321.005,84.522 z "
   style="fill:#000000"
   id="path2208" />
				</g>
				<g
   transform="matrix(0.8586,0,0,-0.8586,28.0583,696.105)"
   id="g2210">
					<path
   d="M 353.21,59.96 L 341.993,65.185 C 340.263,61.423 339.397,58.123 339.397,55.286 C 339.397,50.29 341.658,46.174 346.182,42.937 L 353.21,48.563 L 353.21,59.96 z M 353.21,73.719 L 337.362,78.572 L 343.005,66.637 L 353.21,61.884 L 353.21,73.719 z M 364.835,82.522 L 366.522,81.897 C 364.841,79.304 363.775,77.319 363.324,75.946 C 362.873,74.572 362.647,72.712 362.647,70.365 L 362.647,50.636 C 362.647,47.362 362.877,45.317 363.336,44.499 C 363.795,43.681 364.345,43.272 364.985,43.272 C 365.319,43.272 365.667,43.358 366.029,43.531 C 366.252,43.675 366.905,44.192 367.991,45.085 L 369.085,43.647 L 359.241,35.147 C 356.896,37.001 355.326,38.662 354.534,40.13 C 353.742,41.598 353.301,43.646 353.21,46.272 L 339.116,35.147 C 333.845,39.476 331.21,43.741 331.21,47.946 C 331.21,50.76 331.783,53.403 332.932,55.877 C 334.451,59.123 337.071,62.91 340.793,67.238 L 335.19,79.087 L 335.838,80.335 C 337.04,80.251 337.935,80.21 338.521,80.21 C 342.158,80.21 345.364,81.647 348.14,84.522 C 350.39,83.202 352.849,82.143 355.516,81.345 C 358.183,80.546 360.226,80.147 361.644,80.147 C 362.291,80.147 362.784,80.262 363.124,80.49 C 363.463,80.719 364.033,81.396 364.835,82.522"
   style="fill:#000000"
   id="path2212" />
				</g>
				<g
   transform="matrix(0.8586,0,0,-0.8586,28.0583,696.105)"
   id="g2214">
					<path
   d="M 373.025,79.434 L 385.934,95.397 L 387.275,95.397 L 386.838,82.585 L 396.15,82.585 L 396.15,77.397 L 386.838,77.397 L 386.838,46.21 L 392.025,42.397 L 394.963,44.647 L 396.15,43.272 L 385.932,35.147 C 382.465,38.71 378.537,41.127 374.15,42.397 L 374.15,43.335 C 375.389,44.168 376.209,45.032 376.611,45.927 C 377.137,47.067 377.4,48.719 377.4,50.879 L 377.4,77.397 L 373.025,77.397 L 373.025,79.434 z "
   style="fill:#000000"
   id="path2216" />
				</g>
				<g
   transform="matrix(0.8586,0,0,-0.8586,28.0583,696.105)"
   id="g2218">
					<path
   d="M 412.983,79.218 L 412.335,78.86 L 412.335,57.824 L 424.523,66.367 L 412.983,79.218 z M 420.022,84.522 L 433.085,69.253 L 412.335,54.71 L 412.335,46.272 L 423.07,42.022 L 430.335,46.96 L 431.335,45.585 L 416.366,35.147 C 413.312,36.775 410.796,37.942 408.821,38.649 C 406.847,39.356 404.038,40.105 400.397,40.897 L 400.397,42.085 C 401.44,42.702 402.139,43.466 402.492,44.377 C 402.846,45.287 403.022,47.256 403.022,50.282 L 403.022,76.772 C 405.925,77.817 408.334,78.771 410.249,79.633 C 411.638,80.278 414.896,81.908 420.022,84.522"
   style="fill:#000000"
   id="path2220" />
				</g>
				<g
   transform="matrix(0.8586,0,0,-0.8586,28.0583,696.105)"
   id="g2222">
					<path
   d="M 525.66,53.397 C 522.824,54.397 520.419,54.897 518.446,54.897 C 516.381,54.897 514.223,54.397 511.973,53.397 L 511.973,45.16 C 513.299,44.572 514.548,43.908 515.72,43.166 C 518.863,44.84 522.177,46.151 525.66,47.1 L 525.66,53.397 z M 525.66,63.772 C 523.07,62.897 520.789,62.46 518.816,62.46 C 516.689,62.46 514.408,62.897 511.973,63.772 L 511.973,55.522 C 514.346,56.355 516.565,56.772 518.632,56.772 C 520.635,56.772 522.978,56.355 525.66,55.522 L 525.66,63.772 z M 511.973,65.835 C 514.5,64.96 516.781,64.522 518.816,64.522 C 520.851,64.522 523.132,64.96 525.66,65.835 C 525.66,67.953 525.182,69.657 524.227,70.947 C 523.271,72.236 521.467,73.449 518.816,74.586 C 515.456,72.359 513.175,70.921 511.973,70.272 L 511.973,65.835 z M 514.754,100.812 C 511.41,99.299 509.158,98.018 507.998,96.969 C 506.837,95.919 506.032,94.677 505.583,93.241 C 505.134,91.806 504.91,89.376 504.91,85.95 L 504.91,66.969 C 504.91,63.574 504.601,61.02 503.982,59.307 C 503.363,57.594 502.173,55.911 500.41,54.261 C 498.647,52.609 495.076,50.21 489.696,47.062 C 492.602,47.493 495.306,47.71 497.81,47.71 C 502.075,47.71 506.108,47.122 509.91,45.948 L 509.91,84.522 L 511.973,84.522 L 511.973,72.46 C 516.231,75.022 519.38,77.655 521.417,80.358 C 523.454,83.061 524.473,85.987 524.473,89.138 C 524.473,91.731 523.678,93.962 522.089,95.831 C 520.5,97.699 518.055,99.359 514.754,100.812 M 522.754,105.335 C 525.957,104.47 528.376,103.202 530.009,101.533 C 532.317,99.185 533.474,96.48 533.474,93.421 C 533.474,90.917 532.573,88.329 530.772,85.655 C 528.972,82.981 525.654,79.807 520.822,76.129 C 524.949,75.758 527.976,75.079 529.901,74.092 C 531.825,73.104 533.173,71.84 533.942,70.297 C 534.712,68.754 535.099,66.178 535.099,62.568 L 535.099,46.647 C 524.113,45.411 514.748,41.577 507.004,35.147 C 504.32,36.997 501.776,38.308 499.37,39.079 C 495.483,40.374 491.32,41.022 486.88,41.022 C 481.421,41.022 477.041,39.911 473.741,37.688 C 471.521,36.206 470.41,34.726 470.41,33.243 C 470.41,32.688 470.732,31.862 471.379,30.766 C 472.024,29.671 472.348,28.799 472.348,28.15 C 472.348,27.533 472.115,26.992 471.65,26.529 C 471.186,26.066 470.674,25.835 470.116,25.835 C 469.248,25.835 468.466,26.244 467.769,27.061 C 467.071,27.879 466.723,28.936 466.723,30.23 C 466.723,31.434 467.145,32.799 467.989,34.325 C 468.833,35.852 470.66,38.049 473.471,40.918 C 476.28,43.786 478.077,45.884 478.86,47.21 C 479.644,48.536 480.035,49.771 480.035,50.912 C 480.035,52.269 479.58,53.387 478.67,54.266 C 477.76,55.145 476.611,55.585 475.224,55.585 C 473.958,55.585 472.925,55.231 472.123,54.524 C 471.32,53.817 470.781,52.65 470.504,51.022 L 468.848,51.054 C 468.816,51.638 468.801,52.069 468.801,52.347 C 468.801,54.932 469.669,57.055 471.405,58.717 C 473.142,60.379 475.454,61.21 478.343,61.21 C 478.681,61.21 479.203,61.194 479.91,61.163 C 479.879,64.187 479.433,66.378 478.571,67.736 C 477.217,69.927 475.155,71.022 472.386,71.022 C 470.661,71.022 469.138,70.577 467.815,69.688 C 467.106,69.228 466.398,68.276 465.691,66.835 L 463.91,67.429 C 464.219,70.39 465.367,72.75 467.356,74.509 C 469.346,76.268 471.883,77.147 474.967,77.147 C 476.107,77.147 477.526,77.055 479.223,76.87 C 479.346,81.222 479.748,84.394 480.428,86.385 C 481.107,88.376 482.252,90.197 483.859,91.849 C 485.467,93.5 488.512,95.792 492.994,98.726 C 488.771,97.34 485.197,96.647 482.271,96.647 C 480.391,96.647 477.926,97.012 474.875,97.742 C 473.118,98.137 471.87,98.335 471.131,98.335 C 469.744,98.335 468.572,97.863 467.617,96.922 C 466.662,95.98 466.03,94.306 465.723,91.897 L 463.973,91.897 C 464.064,94.718 464.581,97.082 465.521,98.988 C 466.462,100.895 467.903,102.429 469.846,103.591 C 471.788,104.753 473.839,105.335 475.997,105.335 C 477.6,105.335 480.267,104.872 483.997,103.946 C 487.728,103.021 490.75,102.558 493.063,102.558 C 494.758,102.558 496.399,102.742 497.987,103.113 C 499.575,103.483 501.664,104.224 504.254,105.335 L 505.16,103.304 C 498.491,100.063 494.053,96.906 491.846,93.836 C 489.639,90.766 488.535,86.684 488.535,81.591 L 488.535,62.564 C 488.535,58.397 488.073,55.156 487.149,52.842 C 486.226,50.527 484.362,47.889 481.56,44.926 C 487.025,47.24 490.7,49.725 492.584,52.379 C 494.468,55.033 495.41,58.938 495.41,64.092 L 495.41,77.749 C 495.41,84.106 495.966,88.589 497.078,91.197 C 498.19,93.805 500.237,96.043 503.219,97.91 C 506.2,99.777 512.712,102.252 522.754,105.335"
   style="fill:#000000"
   id="path2224" />
				</g>
				<g
   transform="matrix(0.8586,0,0,-0.8586,28.0583,696.105)"
   id="g2226">
					<path
   d="M 563.104,59.96 L 551.887,65.185 C 550.156,61.423 549.291,58.123 549.291,55.286 C 549.291,50.29 551.552,46.174 556.075,42.937 L 563.104,48.563 L 563.104,59.96 z M 563.104,73.719 L 547.256,78.572 L 552.898,66.637 L 563.104,61.884 L 563.104,73.719 z M 574.729,82.522 L 576.416,81.897 C 574.734,79.304 573.669,77.319 573.218,75.946 C 572.767,74.572 572.541,72.712 572.541,70.365 L 572.541,50.636 C 572.541,47.362 572.771,45.317 573.229,44.499 C 573.688,43.681 574.238,43.272 574.879,43.272 C 575.213,43.272 575.561,43.358 575.923,43.531 C 576.146,43.675 576.799,44.192 577.885,45.085 L 578.979,43.647 L 569.135,35.147 C 566.789,37.001 565.22,38.662 564.428,40.13 C 563.636,41.598 563.194,43.646 563.104,46.272 L 549.01,35.147 C 543.738,39.476 541.104,43.741 541.104,47.946 C 541.104,50.76 541.677,53.403 542.825,55.877 C 544.345,59.123 546.965,62.91 550.687,67.238 L 545.084,79.087 L 545.731,80.335 C 546.934,80.251 547.828,80.21 548.414,80.21 C 552.052,80.21 555.258,81.647 558.033,84.522 C 560.283,83.202 562.742,82.143 565.409,81.345 C 568.076,80.546 570.119,80.147 571.537,80.147 C 572.185,80.147 572.678,80.262 573.018,80.49 C 573.356,80.719 573.927,81.396 574.729,82.522"
   style="fill:#000000"
   id="path2228" />
				</g>
				<g
   transform="matrix(0.8586,0,0,-0.8586,28.0583,696.105)"
   id="g2230">
					<path
   d="M 597.544,71.111 L 597.544,44.928 C 601.882,48.074 604.967,51.351 606.798,54.757 C 608.628,58.163 609.544,61.407 609.544,64.49 C 609.544,68.651 607.869,72.721 604.52,76.697 L 597.544,71.111 z M 581.544,76.397 L 591.227,84.522 C 593.87,82.728 595.584,81.164 596.368,79.834 C 597.151,78.503 597.544,76.677 597.544,74.356 L 597.544,73.335 L 611.513,84.522 C 616.325,79.488 618.731,74.1 618.731,68.356 C 618.731,65.268 617.945,62.187 616.374,59.114 C 614.802,56.042 612.337,53.125 608.978,50.364 C 605.618,47.603 600.195,43.986 592.707,39.514 C 589.44,37.536 587.483,36.285 586.837,35.76 C 585.45,34.679 584.464,33.628 583.879,32.608 C 583.447,31.867 583.231,31.033 583.231,30.105 C 583.231,28.53 584.007,27.07 585.558,25.726 C 587.108,24.383 589.159,23.71 591.708,23.71 C 593.55,23.71 595.07,24.034 596.269,24.683 C 596.852,24.992 597.42,25.648 597.973,26.652 C 598.525,27.656 599.002,28.313 599.401,28.621 C 599.8,28.931 600.276,29.085 600.829,29.085 C 601.443,29.085 601.935,28.916 602.304,28.577 C 602.672,28.239 602.856,27.793 602.856,27.238 C 602.856,26.254 602.135,25.285 600.691,24.33 C 598.479,22.792 595.685,22.022 592.306,22.022 C 588.772,22.022 586.055,22.864 584.15,24.545 C 582.246,26.228 581.294,28.226 581.294,30.54 C 581.294,32.824 582.353,35.046 584.47,37.206 C 585.482,38.255 586.111,38.996 586.357,39.429 C 587.032,40.601 587.492,41.688 587.738,42.691 C 587.983,43.694 588.106,45.106 588.106,46.928 L 588.106,69.056 C 588.106,72.142 587.756,74.24 587.056,75.352 C 586.507,76.215 585.913,76.647 585.273,76.647 C 584.756,76.647 584.085,76.248 583.263,75.45 C 583.141,75.327 582.942,75.143 582.669,74.897 L 581.544,76.397 z "
   style="fill:#000000"
   id="path2232" />
				</g>
			</g>
		</g>
	</g>
</g>
</svg>